<svg aria-roledescription="er" role="graphics-document document" viewBox="0 0 376.8485412597656 732" style="max-width: 3840px; background-color: white; max-height: 3840px;" xmlns:xlink="http://www.w3.org/1999/xlink" xmlns="http://www.w3.org/2000/svg" width="100%" id="my-svg"><style>#my-svg{font-family:"trebuchet ms",verdana,arial,sans-serif;font-size:14px;fill:#333;}#my-svg .error-icon{fill:#ffffff;}#my-svg .error-text{fill:#000000;stroke:#000000;}#my-svg .edge-thickness-normal{stroke-width:1px;}#my-svg .edge-thickness-thick{stroke-width:3.5px;}#my-svg .edge-pattern-solid{stroke-dasharray:0;}#my-svg .edge-thickness-invisible{stroke-width:0;fill:none;}#my-svg .edge-pattern-dashed{stroke-dasharray:3;}#my-svg .edge-pattern-dotted{stroke-dasharray:2;}#my-svg .marker{fill:#000000;stroke:#000000;}#my-svg .marker.cross{stroke:#000000;}#my-svg svg{font-family:"trebuchet ms",verdana,arial,sans-serif;font-size:14px;}#my-svg p{margin:0;}#my-svg .entityBox{fill:#ffffff;stroke:#000000;}#my-svg .attributeBoxOdd{fill:#ffffff;stroke:#000000;}#my-svg .attributeBoxEven{fill:#f2f2f2;stroke:#000000;}#my-svg .relationshipLabelBox{fill:#ffffff;opacity:0.7;background-color:#ffffff;}#my-svg .relationshipLabelBox rect{opacity:0.5;}#my-svg .relationshipLine{stroke:#000000;}#my-svg .entityTitleText{text-anchor:middle;font-size:18px;fill:#333;}#my-svg #MD_PARENT_START{fill:#f5f5f5!important;stroke:#000000!important;stroke-width:1;}#my-svg #MD_PARENT_END{fill:#f5f5f5!important;stroke:#000000!important;stroke-width:1;}#my-svg .node .neo-node{stroke:#000000;}#my-svg [data-look="neo"].node rect,#my-svg [data-look="neo"].cluster rect,#my-svg [data-look="neo"].node polygon{stroke:url(#my-svg-gradient);filter:drop-shadow( 0px 1px 2px rgba(0, 0, 0, 0.25));}#my-svg [data-look="neo"].node rect,#my-svg [data-look="neo"].node polygon,#my-svg [data-look="neo"].node path{stroke:url(#my-svg-gradient);filter:drop-shadow( 0px 1px 2px rgba(0, 0, 0, 0.25));}#my-svg [data-look="neo"].node .neo-line path{stroke:hsl(0, 0%, 70%);filter:none;}#my-svg [data-look="neo"].node circle{stroke:url(#my-svg-gradient);filter:drop-shadow( 0px 1px 2px rgba(0, 0, 0, 0.25));}#my-svg [data-look="neo"].node circle .state-start{fill:#000000;}#my-svg [data-look="neo"].statediagram-cluster rect{fill:#ffffff;stroke:url(#my-svg-gradient);stroke-width:1px;}#my-svg [data-look="neo"].icon-shape .icon{fill:url(#my-svg-gradient);filter:drop-shadow( 0px 1px 2px rgba(0, 0, 0, 0.25));}#my-svg [data-look="neo"].icon-shape .icon-neo path{stroke:url(#my-svg-gradient);filter:drop-shadow( 0px 1px 2px rgba(0, 0, 0, 0.25));}#my-svg :root{--mermaid-font-family:"trebuchet ms",verdana,arial,sans-serif;}</style><g/><defs><marker orient="auto" markerHeight="240" markerWidth="190" refY="7" refX="0" id="MD_PARENT_START"><path d="M 18,7 L9,13 L1,7 L9,1 Z"/></marker></defs><defs><marker orient="auto" markerHeight="28" markerWidth="20" refY="7" refX="19" id="MD_PARENT_END"><path d="M 18,7 L9,13 L1,7 L9,1 Z"/></marker></defs><defs><marker orient="auto" markerHeight="18" markerWidth="18" refY="9" refX="0" id="ONLY_ONE_START"><path d="M9,0 L9,18 M15,0 L15,18" fill="none" stroke="gray"/></marker></defs><defs><marker orient="auto" markerHeight="18" markerWidth="18" refY="9" refX="18" id="ONLY_ONE_END"><path d="M3,0 L3,18 M9,0 L9,18" fill="none" stroke="gray"/></marker></defs><defs><marker orient="auto" markerHeight="18" markerWidth="30" refY="9" refX="0" id="ZERO_OR_ONE_START"><circle r="6" cy="9" cx="21" fill="white" stroke="gray"/><path d="M9,0 L9,18" fill="none" stroke="gray"/></marker></defs><defs><marker orient="auto" markerHeight="18" markerWidth="30" refY="9" refX="30" id="ZERO_OR_ONE_END"><circle r="6" cy="9" cx="9" fill="white" stroke="gray"/><path d="M21,0 L21,18" fill="none" stroke="gray"/></marker></defs><defs><marker orient="auto" markerHeight="36" markerWidth="45" refY="18" refX="18" id="ONE_OR_MORE_START"><path d="M0,18 Q 18,0 36,18 Q 18,36 0,18 M42,9 L42,27" fill="none" stroke="gray"/></marker></defs><defs><marker orient="auto" markerHeight="36" markerWidth="45" refY="18" refX="27" id="ONE_OR_MORE_END"><path d="M3,9 L3,27 M9,18 Q27,0 45,18 Q27,36 9,18" fill="none" stroke="gray"/></marker></defs><defs><marker orient="auto" markerHeight="36" markerWidth="57" refY="18" refX="18" id="ZERO_OR_MORE_START"><circle r="6" cy="18" cx="48" fill="white" stroke="gray"/><path d="M0,18 Q18,0 36,18 Q18,36 0,18" fill="none" stroke="gray"/></marker></defs><defs><marker orient="auto" markerHeight="36" markerWidth="57" refY="18" refX="39" id="ZERO_OR_MORE_END"><circle r="6" cy="18" cx="9" fill="white" stroke="gray"/><path d="M21,18 Q39,0 57,18 Q39,36 21,18" fill="none" stroke="gray"/></marker></defs><path style="stroke: gray; fill: none;" marker-start="url(#ONLY_ONE_START)" marker-end="url(#ZERO_OR_MORE_END)" d="M84.276,191L84.276,199.333C84.276,207.667,84.276,224.333,84.276,241C84.276,257.667,84.276,274.333,84.276,282.667L84.276,291" class="er relationshipLine"/><path style="stroke: gray; fill: none;" marker-start="url(#ONLY_ONE_START)" marker-end="url(#ZERO_OR_MORE_END)" d="M84.276,441L84.276,449.333C84.276,457.667,84.276,474.333,90.958,491C97.64,507.667,111.003,524.333,117.685,532.667L124.366,541" class="er relationshipLine"/><path style="stroke: gray; fill: none;" marker-start="url(#ONLY_ONE_START)" marker-end="url(#ZERO_OR_MORE_END)" d="M301.566,430.5L301.566,440.583C301.566,450.667,301.566,470.833,294.884,489.25C288.203,507.667,274.839,524.333,268.158,532.667L261.476,541" class="er relationshipLine"/><g transform="translate(20,20 )" id="entity-CUSTOMER-7c659eae-ee79-5f5d-acd7-c418f8ad1d67"><rect height="171" width="128.5521240234375" y="0" x="0" class="er entityBox"/><text style="dominant-baseline: middle; text-anchor: middle; font-size: 12px;" transform="translate(64.27606201171875,12)" y="0" x="0" id="text-entity-CUSTOMER-7c659eae-ee79-5f5d-acd7-c418f8ad1d67" class="er entityLabel">CUSTOMER</text><rect height="21" width="49.4078369140625" y="24" x="0" class="er attributeBoxOdd"/><text style="dominant-baseline: middle; font-size: 10.2px;" transform="translate(5,34.5)" y="0" x="0" id="text-entity-CUSTOMER-7c659eae-ee79-5f5d-acd7-c418f8ad1d67-attr-1-type" class="er entityLabel">int</text><rect height="21" width="79.144287109375" y="24" x="49.4078369140625" class="er attributeBoxOdd"/><text style="dominant-baseline: middle; font-size: 10.2px;" transform="translate(54.4078369140625,34.5)" y="0" x="0" id="text-entity-CUSTOMER-7c659eae-ee79-5f5d-acd7-c418f8ad1d67-attr-1-name" class="er entityLabel">id</text><rect height="21" width="49.4078369140625" y="45" x="0" class="er attributeBoxEven"/><text style="dominant-baseline: middle; font-size: 10.2px;" transform="translate(5,55.5)" y="0" x="0" id="text-entity-CUSTOMER-7c659eae-ee79-5f5d-acd7-c418f8ad1d67-attr-2-type" class="er entityLabel">string</text><rect height="21" width="79.144287109375" y="45" x="49.4078369140625" class="er attributeBoxEven"/><text style="dominant-baseline: middle; font-size: 10.2px;" transform="translate(54.4078369140625,55.5)" y="0" x="0" id="text-entity-CUSTOMER-7c659eae-ee79-5f5d-acd7-c418f8ad1d67-attr-2-name" class="er entityLabel">first_name</text><rect height="21" width="49.4078369140625" y="66" x="0" class="er attributeBoxOdd"/><text style="dominant-baseline: middle; font-size: 10.2px;" transform="translate(5,76.5)" y="0" x="0" id="text-entity-CUSTOMER-7c659eae-ee79-5f5d-acd7-c418f8ad1d67-attr-3-type" class="er entityLabel">string</text><rect height="21" width="79.144287109375" y="66" x="49.4078369140625" class="er attributeBoxOdd"/><text style="dominant-baseline: middle; font-size: 10.2px;" transform="translate(54.4078369140625,76.5)" y="0" x="0" id="text-entity-CUSTOMER-7c659eae-ee79-5f5d-acd7-c418f8ad1d67-attr-3-name" class="er entityLabel">last_name</text><rect height="21" width="49.4078369140625" y="87" x="0" class="er attributeBoxEven"/><text style="dominant-baseline: middle; font-size: 10.2px;" transform="translate(5,97.5)" y="0" x="0" id="text-entity-CUSTOMER-7c659eae-ee79-5f5d-acd7-c418f8ad1d67-attr-4-type" class="er entityLabel">string</text><rect height="21" width="79.144287109375" y="87" x="49.4078369140625" class="er attributeBoxEven"/><text style="dominant-baseline: middle; font-size: 10.2px;" transform="translate(54.4078369140625,97.5)" y="0" x="0" id="text-entity-CUSTOMER-7c659eae-ee79-5f5d-acd7-c418f8ad1d67-attr-4-name" class="er entityLabel">email</text><rect height="21" width="49.4078369140625" y="108" x="0" class="er attributeBoxOdd"/><text style="dominant-baseline: middle; font-size: 10.2px;" transform="translate(5,118.5)" y="0" x="0" id="text-entity-CUSTOMER-7c659eae-ee79-5f5d-acd7-c418f8ad1d67-attr-5-type" class="er entityLabel">string</text><rect height="21" width="79.144287109375" y="108" x="49.4078369140625" class="er attributeBoxOdd"/><text style="dominant-baseline: middle; font-size: 10.2px;" transform="translate(54.4078369140625,118.5)" y="0" x="0" id="text-entity-CUSTOMER-7c659eae-ee79-5f5d-acd7-c418f8ad1d67-attr-5-name" class="er entityLabel">phone_number</text><rect height="21" width="49.4078369140625" y="129" x="0" class="er attributeBoxEven"/><text style="dominant-baseline: middle; font-size: 10.2px;" transform="translate(5,139.5)" y="0" x="0" id="text-entity-CUSTOMER-7c659eae-ee79-5f5d-acd7-c418f8ad1d67-attr-6-type" class="er entityLabel">datetime</text><rect height="21" width="79.144287109375" y="129" x="49.4078369140625" class="er attributeBoxEven"/><text style="dominant-baseline: middle; font-size: 10.2px;" transform="translate(54.4078369140625,139.5)" y="0" x="0" id="text-entity-CUSTOMER-7c659eae-ee79-5f5d-acd7-c418f8ad1d67-attr-6-name" class="er entityLabel">created_at</text><rect height="21" width="49.4078369140625" y="150" x="0" class="er attributeBoxOdd"/><text style="dominant-baseline: middle; font-size: 10.2px;" transform="translate(5,160.5)" y="0" x="0" id="text-entity-CUSTOMER-7c659eae-ee79-5f5d-acd7-c418f8ad1d67-attr-7-type" class="er entityLabel">datetime</text><rect height="21" width="79.144287109375" y="150" x="49.4078369140625" class="er attributeBoxOdd"/><text style="dominant-baseline: middle; font-size: 10.2px;" transform="translate(54.4078369140625,160.5)" y="0" x="0" id="text-entity-CUSTOMER-7c659eae-ee79-5f5d-acd7-c418f8ad1d67-attr-7-name" class="er entityLabel">updated_at</text></g><g transform="translate(22.26824951171875,291 )" id="entity-MOVEREQUEST-c1528db2-397c-59fe-9e16-1af4ef283316"><rect height="150" width="124.015625" y="0" x="0" class="er entityBox"/><text style="dominant-baseline: middle; text-anchor: middle; font-size: 12px;" transform="translate(62.0078125,12)" y="0" x="0" id="text-entity-MOVEREQUEST-c1528db2-397c-59fe-9e16-1af4ef283316" class="er entityLabel">MOVEREQUEST</text><rect height="21" width="53.96173095703125" y="24" x="0" class="er attributeBoxOdd"/><text style="dominant-baseline: middle; font-size: 10.2px;" transform="translate(5,34.5)" y="0" x="0" id="text-entity-MOVEREQUEST-c1528db2-397c-59fe-9e16-1af4ef283316-attr-1-type" class="er entityLabel">int</text><rect height="21" width="70.05389404296875" y="24" x="53.96173095703125" class="er attributeBoxOdd"/><text style="dominant-baseline: middle; font-size: 10.2px;" transform="translate(58.96173095703125,34.5)" y="0" x="0" id="text-entity-MOVEREQUEST-c1528db2-397c-59fe-9e16-1af4ef283316-attr-1-name" class="er entityLabel">id</text><rect height="21" width="53.96173095703125" y="45" x="0" class="er attributeBoxEven"/><text style="dominant-baseline: middle; font-size: 10.2px;" transform="translate(5,55.5)" y="0" x="0" id="text-entity-MOVEREQUEST-c1528db2-397c-59fe-9e16-1af4ef283316-attr-2-type" class="er entityLabel">int</text><rect height="21" width="70.05389404296875" y="45" x="53.96173095703125" class="er attributeBoxEven"/><text style="dominant-baseline: middle; font-size: 10.2px;" transform="translate(58.96173095703125,55.5)" y="0" x="0" id="text-entity-MOVEREQUEST-c1528db2-397c-59fe-9e16-1af4ef283316-attr-2-name" class="er entityLabel">customer_id</text><rect height="21" width="53.96173095703125" y="66" x="0" class="er attributeBoxOdd"/><text style="dominant-baseline: middle; font-size: 10.2px;" transform="translate(5,76.5)" y="0" x="0" id="text-entity-MOVEREQUEST-c1528db2-397c-59fe-9e16-1af4ef283316-attr-3-type" class="er entityLabel">date</text><rect height="21" width="70.05389404296875" y="66" x="53.96173095703125" class="er attributeBoxOdd"/><text style="dominant-baseline: middle; font-size: 10.2px;" transform="translate(58.96173095703125,76.5)" y="0" x="0" id="text-entity-MOVEREQUEST-c1528db2-397c-59fe-9e16-1af4ef283316-attr-3-name" class="er entityLabel">move_date</text><rect height="21" width="53.96173095703125" y="87" x="0" class="er attributeBoxEven"/><text style="dominant-baseline: middle; font-size: 10.2px;" transform="translate(5,97.5)" y="0" x="0" id="text-entity-MOVEREQUEST-c1528db2-397c-59fe-9e16-1af4ef283316-attr-4-type" class="er entityLabel">string</text><rect height="21" width="70.05389404296875" y="87" x="53.96173095703125" class="er attributeBoxEven"/><text style="dominant-baseline: middle; font-size: 10.2px;" transform="translate(58.96173095703125,97.5)" y="0" x="0" id="text-entity-MOVEREQUEST-c1528db2-397c-59fe-9e16-1af4ef283316-attr-4-name" class="er entityLabel">status</text><rect height="21" width="53.96173095703125" y="108" x="0" class="er attributeBoxOdd"/><text style="dominant-baseline: middle; font-size: 10.2px;" transform="translate(5,118.5)" y="0" x="0" id="text-entity-MOVEREQUEST-c1528db2-397c-59fe-9e16-1af4ef283316-attr-5-type" class="er entityLabel">datetime</text><rect height="21" width="70.05389404296875" y="108" x="53.96173095703125" class="er attributeBoxOdd"/><text style="dominant-baseline: middle; font-size: 10.2px;" transform="translate(58.96173095703125,118.5)" y="0" x="0" id="text-entity-MOVEREQUEST-c1528db2-397c-59fe-9e16-1af4ef283316-attr-5-name" class="er entityLabel">created_at</text><rect height="21" width="53.96173095703125" y="129" x="0" class="er attributeBoxEven"/><text style="dominant-baseline: middle; font-size: 10.2px;" transform="translate(5,139.5)" y="0" x="0" id="text-entity-MOVEREQUEST-c1528db2-397c-59fe-9e16-1af4ef283316-attr-6-type" class="er entityLabel">datetime</text><rect height="21" width="70.05389404296875" y="129" x="53.96173095703125" class="er attributeBoxEven"/><text style="dominant-baseline: middle; font-size: 10.2px;" transform="translate(58.96173095703125,139.5)" y="0" x="0" id="text-entity-MOVEREQUEST-c1528db2-397c-59fe-9e16-1af4ef283316-attr-6-name" class="er entityLabel">updated_at</text></g><g transform="translate(124.13909149169922,541 )" id="entity-INVENTORYITEM-a4d6de6d-5a55-5e2c-9ebc-34e220ef77b9"><rect height="171" width="137.5640869140625" y="0" x="0" class="er entityBox"/><text style="dominant-baseline: middle; text-anchor: middle; font-size: 12px;" transform="translate(68.78204345703125,12)" y="0" x="0" id="text-entity-INVENTORYITEM-a4d6de6d-5a55-5e2c-9ebc-34e220ef77b9" class="er entityLabel">INVENTORYITEM</text><rect height="21" width="49.4078369140625" y="24" x="0" class="er attributeBoxOdd"/><text style="dominant-baseline: middle; font-size: 10.2px;" transform="translate(5,34.5)" y="0" x="0" id="text-entity-INVENTORYITEM-a4d6de6d-5a55-5e2c-9ebc-34e220ef77b9-attr-1-type" class="er entityLabel">int</text><rect height="21" width="88.15625" y="24" x="49.4078369140625" class="er attributeBoxOdd"/><text style="dominant-baseline: middle; font-size: 10.2px;" transform="translate(54.4078369140625,34.5)" y="0" x="0" id="text-entity-INVENTORYITEM-a4d6de6d-5a55-5e2c-9ebc-34e220ef77b9-attr-1-name" class="er entityLabel">id</text><rect height="21" width="49.4078369140625" y="45" x="0" class="er attributeBoxEven"/><text style="dominant-baseline: middle; font-size: 10.2px;" transform="translate(5,55.5)" y="0" x="0" id="text-entity-INVENTORYITEM-a4d6de6d-5a55-5e2c-9ebc-34e220ef77b9-attr-2-type" class="er entityLabel">int</text><rect height="21" width="88.15625" y="45" x="49.4078369140625" class="er attributeBoxEven"/><text style="dominant-baseline: middle; font-size: 10.2px;" transform="translate(54.4078369140625,55.5)" y="0" x="0" id="text-entity-INVENTORYITEM-a4d6de6d-5a55-5e2c-9ebc-34e220ef77b9-attr-2-name" class="er entityLabel">move_request_id</text><rect height="21" width="49.4078369140625" y="66" x="0" class="er attributeBoxOdd"/><text style="dominant-baseline: middle; font-size: 10.2px;" transform="translate(5,76.5)" y="0" x="0" id="text-entity-INVENTORYITEM-a4d6de6d-5a55-5e2c-9ebc-34e220ef77b9-attr-3-type" class="er entityLabel">string</text><rect height="21" width="88.15625" y="66" x="49.4078369140625" class="er attributeBoxOdd"/><text style="dominant-baseline: middle; font-size: 10.2px;" transform="translate(54.4078369140625,76.5)" y="0" x="0" id="text-entity-INVENTORYITEM-a4d6de6d-5a55-5e2c-9ebc-34e220ef77b9-attr-3-name" class="er entityLabel">name</text><rect height="21" width="49.4078369140625" y="87" x="0" class="er attributeBoxEven"/><text style="dominant-baseline: middle; font-size: 10.2px;" transform="translate(5,97.5)" y="0" x="0" id="text-entity-INVENTORYITEM-a4d6de6d-5a55-5e2c-9ebc-34e220ef77b9-attr-4-type" class="er entityLabel">int</text><rect height="21" width="88.15625" y="87" x="49.4078369140625" class="er attributeBoxEven"/><text style="dominant-baseline: middle; font-size: 10.2px;" transform="translate(54.4078369140625,97.5)" y="0" x="0" id="text-entity-INVENTORYITEM-a4d6de6d-5a55-5e2c-9ebc-34e220ef77b9-attr-4-name" class="er entityLabel">quantity</text><rect height="21" width="49.4078369140625" y="108" x="0" class="er attributeBoxOdd"/><text style="dominant-baseline: middle; font-size: 10.2px;" transform="translate(5,118.5)" y="0" x="0" id="text-entity-INVENTORYITEM-a4d6de6d-5a55-5e2c-9ebc-34e220ef77b9-attr-5-type" class="er entityLabel">float</text><rect height="21" width="88.15625" y="108" x="49.4078369140625" class="er attributeBoxOdd"/><text style="dominant-baseline: middle; font-size: 10.2px;" transform="translate(54.4078369140625,118.5)" y="0" x="0" id="text-entity-INVENTORYITEM-a4d6de6d-5a55-5e2c-9ebc-34e220ef77b9-attr-5-name" class="er entityLabel">weight</text><rect height="21" width="49.4078369140625" y="129" x="0" class="er attributeBoxEven"/><text style="dominant-baseline: middle; font-size: 10.2px;" transform="translate(5,139.5)" y="0" x="0" id="text-entity-INVENTORYITEM-a4d6de6d-5a55-5e2c-9ebc-34e220ef77b9-attr-6-type" class="er entityLabel">datetime</text><rect height="21" width="88.15625" y="129" x="49.4078369140625" class="er attributeBoxEven"/><text style="dominant-baseline: middle; font-size: 10.2px;" transform="translate(54.4078369140625,139.5)" y="0" x="0" id="text-entity-INVENTORYITEM-a4d6de6d-5a55-5e2c-9ebc-34e220ef77b9-attr-6-name" class="er entityLabel">created_at</text><rect height="21" width="49.4078369140625" y="150" x="0" class="er attributeBoxOdd"/><text style="dominant-baseline: middle; font-size: 10.2px;" transform="translate(5,160.5)" y="0" x="0" id="text-entity-INVENTORYITEM-a4d6de6d-5a55-5e2c-9ebc-34e220ef77b9-attr-7-type" class="er entityLabel">datetime</text><rect height="21" width="88.15625" y="150" x="49.4078369140625" class="er attributeBoxOdd"/><text style="dominant-baseline: middle; font-size: 10.2px;" transform="translate(54.4078369140625,160.5)" y="0" x="0" id="text-entity-INVENTORYITEM-a4d6de6d-5a55-5e2c-9ebc-34e220ef77b9-attr-7-name" class="er entityLabel">updated_at</text></g><g transform="translate(246.28387451171875,301.5 )" id="entity-WAREHOUSE-0adeb4a0-642b-54e5-afd2-51ae40a767ca"><rect height="129" width="110.56466674804688" y="0" x="0" class="er entityBox"/><text style="dominant-baseline: middle; text-anchor: middle; font-size: 12px;" transform="translate(55.28233337402344,12)" y="0" x="0" id="text-entity-WAREHOUSE-0adeb4a0-642b-54e5-afd2-51ae40a767ca" class="er entityLabel">WAREHOUSE</text><rect height="21" width="49.4078369140625" y="24" x="0" class="er attributeBoxOdd"/><text style="dominant-baseline: middle; font-size: 10.2px;" transform="translate(5,34.5)" y="0" x="0" id="text-entity-WAREHOUSE-0adeb4a0-642b-54e5-afd2-51ae40a767ca-attr-1-type" class="er entityLabel">int</text><rect height="21" width="61.156829833984375" y="24" x="49.4078369140625" class="er attributeBoxOdd"/><text style="dominant-baseline: middle; font-size: 10.2px;" transform="translate(54.4078369140625,34.5)" y="0" x="0" id="text-entity-WAREHOUSE-0adeb4a0-642b-54e5-afd2-51ae40a767ca-attr-1-name" class="er entityLabel">id</text><rect height="21" width="49.4078369140625" y="45" x="0" class="er attributeBoxEven"/><text style="dominant-baseline: middle; font-size: 10.2px;" transform="translate(5,55.5)" y="0" x="0" id="text-entity-WAREHOUSE-0adeb4a0-642b-54e5-afd2-51ae40a767ca-attr-2-type" class="er entityLabel">string</text><rect height="21" width="61.156829833984375" y="45" x="49.4078369140625" class="er attributeBoxEven"/><text style="dominant-baseline: middle; font-size: 10.2px;" transform="translate(54.4078369140625,55.5)" y="0" x="0" id="text-entity-WAREHOUSE-0adeb4a0-642b-54e5-afd2-51ae40a767ca-attr-2-name" class="er entityLabel">location</text><rect height="21" width="49.4078369140625" y="66" x="0" class="er attributeBoxOdd"/><text style="dominant-baseline: middle; font-size: 10.2px;" transform="translate(5,76.5)" y="0" x="0" id="text-entity-WAREHOUSE-0adeb4a0-642b-54e5-afd2-51ae40a767ca-attr-3-type" class="er entityLabel">int</text><rect height="21" width="61.156829833984375" y="66" x="49.4078369140625" class="er attributeBoxOdd"/><text style="dominant-baseline: middle; font-size: 10.2px;" transform="translate(54.4078369140625,76.5)" y="0" x="0" id="text-entity-WAREHOUSE-0adeb4a0-642b-54e5-afd2-51ae40a767ca-attr-3-name" class="er entityLabel">capacity</text><rect height="21" width="49.4078369140625" y="87" x="0" class="er attributeBoxEven"/><text style="dominant-baseline: middle; font-size: 10.2px;" transform="translate(5,97.5)" y="0" x="0" id="text-entity-WAREHOUSE-0adeb4a0-642b-54e5-afd2-51ae40a767ca-attr-4-type" class="er entityLabel">datetime</text><rect height="21" width="61.156829833984375" y="87" x="49.4078369140625" class="er attributeBoxEven"/><text style="dominant-baseline: middle; font-size: 10.2px;" transform="translate(54.4078369140625,97.5)" y="0" x="0" id="text-entity-WAREHOUSE-0adeb4a0-642b-54e5-afd2-51ae40a767ca-attr-4-name" class="er entityLabel">created_at</text><rect height="21" width="49.4078369140625" y="108" x="0" class="er attributeBoxOdd"/><text style="dominant-baseline: middle; font-size: 10.2px;" transform="translate(5,118.5)" y="0" x="0" id="text-entity-WAREHOUSE-0adeb4a0-642b-54e5-afd2-51ae40a767ca-attr-5-type" class="er entityLabel">datetime</text><rect height="21" width="61.156829833984375" y="108" x="49.4078369140625" class="er attributeBoxOdd"/><text style="dominant-baseline: middle; font-size: 10.2px;" transform="translate(54.4078369140625,118.5)" y="0" x="0" id="text-entity-WAREHOUSE-0adeb4a0-642b-54e5-afd2-51ae40a767ca-attr-5-name" class="er entityLabel">updated_at</text></g><rect height="14" width="55.375" y="234" x="56.5885009765625" class="er relationshipLabelBox"/><text style="text-anchor: middle; dominant-baseline: middle; font-size: 12px;" y="241" x="84.2760009765625" id="rel1" class="er relationshipLabel">has_many</text><rect height="14" width="55.375" y="488.3794250488281" x="65.1738510131836" class="er relationshipLabelBox"/><text style="text-anchor: middle; dominant-baseline: middle; font-size: 12px;" y="495.3794250488281" x="92.8613510131836" id="rel2" class="er relationshipLabel">has_many</text><rect height="14" width="32.6875" y="483.3902893066406" x="278.11700439453125" class="er relationshipLabelBox"/><text style="text-anchor: middle; dominant-baseline: middle; font-size: 12px;" y="490.3902893066406" x="294.46075439453125" id="rel3" class="er relationshipLabel">stores</text><style>svg span {
  font-family: 'Arial' !important;
}

svg {
  font-family: 'Arial' !important;
  -webkit-user-select: none;
  -moz-user-select: none;
  -ms-user-select: none;
  user-select: none;
}
</style></svg>